<svg id="Group_12571" data-name="Group 12571" xmlns="http://www.w3.org/2000/svg" xmlns:xlink="http://www.w3.org/1999/xlink" width="488.759" height="446.205" viewBox="0 0 488.759 446.205">
  <defs>
    <linearGradient id="linear-gradient" x1="0.821" y1="0.087" x2="0.511" y2="0.613" gradientUnits="objectBoundingBox">
      <stop offset="0.004" stop-color="#e38ddd"/>
      <stop offset="1" stop-color="#9571f6"/>
    </linearGradient>
    <clipPath id="clip-path">
      <path id="Path_19912" data-name="Path 19912" d="M1851.207,440.732c9.9-11.358,6.644-34,.1-48.125-7.643-16.5-16.706-14.773-21.652-28.064-9.208-24.747,18.433-40.87,11.126-66.563-5.973-21-26.712-18.2-32.268-41.761-4.009-17,4.862-26.633-3.5-40.281-.715-1.167-8.609-13.639-20.989-13.985-12.5-.35-22.253,11.857-26.375,20.779-7.619,16.492,2.881,24.217,1.023,47.082-2.53,31.128-23.489,35.235-20.613,58.541,2.374,19.245,17.213,20.884,19.422,42.275,2.051,19.864-10,25.668-7.34,38.9C1756.255,439.968,1831.018,463.9,1851.207,440.732Z" transform="translate(-1737.783 -201.946)" fill="url(#linear-gradient)"/>
    </clipPath>
    <clipPath id="clip-path-2">
      <path id="Path_19919" data-name="Path 19919" d="M1911.428,601.974c2.989.181,9.653-2.06,11.15-3.36,9.957-8.654,29.653-23.646,31.465-37.475.31-2.362-9.712-6.527-10.765-8.951-5.745-4.207-8-5.31-11.5-11.992-10.324-19.729,26.851-45.946-7.078-64.157-24.852-13.34-48.925-8.506-38.226-49s-7.53-121.513-56.347-101.18c-28.016,11.67-9.448,51.4-27.173,74.7-16.843,22.135-10.328,44.259,12.85,63.914s7.135,28.284-4.868,50.085c-14.417,26.188,27.592,39.358,47.505,43.784C1874.482,561.9,1912.91,581.794,1911.428,601.974Z" transform="translate(-1793.51 -322.636)" fill="#e02e7e"/>
    </clipPath>
    <linearGradient id="linear-gradient-2" x1="0.509" y1="0.477" x2="0.791" y2="0.496" gradientUnits="objectBoundingBox">
      <stop offset="0" stop-color="#444b8c"/>
      <stop offset="0.996" stop-color="#26264f"/>
    </linearGradient>
    <linearGradient id="linear-gradient-3" x1="0.292" y1="0.034" x2="0.987" y2="1.514" xlink:href="#linear-gradient-2"/>
    <linearGradient id="linear-gradient-4" x1="0.61" y1="0.363" x2="-0.101" y2="1.237" gradientUnits="objectBoundingBox">
      <stop offset="0" stop-color="#ffc444"/>
      <stop offset="0.996" stop-color="#f36f56"/>
    </linearGradient>
    <linearGradient id="linear-gradient-5" x1="-0.226" y1="-1.493" x2="28.992" y2="78.648" xlink:href="#linear-gradient-4"/>
    <linearGradient id="linear-gradient-6" x1="-15.353" y1="-2.41" x2="-15.533" y2="2.649" gradientUnits="objectBoundingBox">
      <stop offset="0.004" stop-color="#26264f"/>
      <stop offset="1" stop-color="#444b8c"/>
    </linearGradient>
    <linearGradient id="linear-gradient-7" x1="-58.973" y1="1.152" x2="-58.852" y2="-5.07" gradientUnits="objectBoundingBox">
      <stop offset="0" stop-color="#ab316d"/>
      <stop offset="1" stop-color="#792d3d"/>
    </linearGradient>
    <linearGradient id="linear-gradient-8" x1="-24.572" y1="-1.485" x2="-24.856" y2="1.472" xlink:href="#linear-gradient-6"/>
    <linearGradient id="linear-gradient-9" x1="-41.725" y1="1.353" x2="-41.639" y2="-3.032" xlink:href="#linear-gradient-7"/>
    <linearGradient id="linear-gradient-10" x1="1" y1="0.5" x2="0" y2="0.5" gradientUnits="objectBoundingBox">
      <stop offset="0" stop-color="#311944"/>
      <stop offset="1" stop-color="#6b3976"/>
    </linearGradient>
    <linearGradient id="linear-gradient-11" x1="1" y1="0.5" x2="0" y2="0.5" xlink:href="#linear-gradient-6"/>
    <linearGradient id="linear-gradient-13" x1="128.307" y1="0.739" x2="129.796" y2="3.906" xlink:href="#linear-gradient-7"/>
    <linearGradient id="linear-gradient-14" x1="0.885" y1="0.729" x2="0.492" y2="2.626" gradientUnits="objectBoundingBox">
      <stop offset="0.004" stop-color="#ebeff2"/>
      <stop offset="1" stop-color="#fff"/>
    </linearGradient>
    <linearGradient id="linear-gradient-15" x1="2.329" y1="0.883" x2="1.321" y2="0.883" xlink:href="#linear-gradient-14"/>
    <linearGradient id="linear-gradient-16" x1="2.33" y1="0.882" x2="1.321" y2="0.882" gradientUnits="objectBoundingBox">
      <stop offset="0.004" stop-color="#f36f56"/>
      <stop offset="1" stop-color="#ffc444"/>
    </linearGradient>
    <linearGradient id="linear-gradient-17" x1="1.061" y1="0.031" x2="0.781" y2="1.018" xlink:href="#linear-gradient-14"/>
    <linearGradient id="linear-gradient-18" x1="17.302" y1="13.283" x2="18.103" y2="14.072" xlink:href="#linear-gradient-7"/>
    <linearGradient id="linear-gradient-19" x1="212.808" y1="32.421" x2="216.717" y2="37.579" xlink:href="#linear-gradient-7"/>
    <linearGradient id="linear-gradient-20" x1="1.142" y1="-0.107" x2="0.829" y2="1.036" xlink:href="#linear-gradient-16"/>
    <clipPath id="clip-path-3">
      <path id="Path_19966" data-name="Path 19966" d="M1445.044,688.386c-.487,3.26,1.218,6.152,3.809,6.429l45.388,4.844c3,.32,5.906-2.322,6.423-5.874l5.9-40.521c.514-3.53-1.563-6.487-4.591-6.57l-45.755-1.268c-2.612-.073-5.129,2.52-5.614,5.762Z" transform="translate(-1444.961 -645.424)" fill="none"/>
    </clipPath>
  </defs>
  <path id="Path_33534" data-name="Path 33534" d="M1712.557,213.183c16.416,20.888-2.832,54.754,21.525,70.463,23.71,15.292,52.838-9.774,75.183,3.39,33.148,19.528,27.095,108.881-21.369,164.4-14.575,16.7-26.753,23.192-32.147,42.074-11.582,40.545,29.122,64.664,21.376,84.717-17.44,45.152-285.67,83.04-393.3-52.656-50.265-63.376-57.786-154.891-12.876-224.4C1452.106,175.575,1675.723,166.314,1712.557,213.183Z" transform="translate(-1341.292 -187.179)" fill="#f3f3f5"/>
  <g id="Group_1226" data-name="Group 1226" transform="translate(36.377 85.833)">
    <g id="Group_1194" data-name="Group 1194" transform="translate(65.783)">
      <g id="Group_1193" data-name="Group 1193">
        <path id="Path_19906" data-name="Path 19906" d="M1851.207,440.732c9.9-11.358,6.644-34,.1-48.125-7.643-16.5-16.706-14.773-21.652-28.064-9.208-24.747,18.433-40.87,11.126-66.563-5.973-21-26.712-18.2-32.268-41.761-4.009-17,4.862-26.633-3.5-40.281-.715-1.167-8.609-13.639-20.989-13.985-12.5-.35-22.253,11.857-26.375,20.779-7.619,16.492,2.881,24.217,1.023,47.082-2.53,31.128-23.489,35.235-20.613,58.541,2.374,19.245,17.213,20.884,19.422,42.275,2.051,19.864-10,25.668-7.34,38.9C1756.255,439.968,1831.018,463.9,1851.207,440.732Z" transform="translate(-1737.783 -201.946)" fill="#8371e6"/>
        <g id="Group_1192" data-name="Group 1192" clip-path="url(#clip-path)">
          <g id="Group_1191" data-name="Group 1191" transform="translate(9.173 -15.134)">
            <path id="Path_19907" data-name="Path 19907" d="M1845.811,451.958a.25.25,0,0,0,.072-.49,88.8,88.8,0,0,1-33.809-18.794c-9.187-8.187-18.686-16.652-21.2-29.413-1.9-9.646,1.324-15.882,5.409-23.777,3.98-7.693,8.933-17.267,10.181-33.09.713-9.035,1.6-20.28-4.107-32.157-3.325-6.92-7.173-10.34-10.568-13.358-3.55-3.156-6.355-5.649-7.242-11.071-1.449-8.85,1.873-15.6,5.72-23.416a90.824,90.824,0,0,0,6.571-15.98c4.886-17.324.143-37.837-14.1-60.97a.251.251,0,0,0-.427.263c14.164,23.008,18.888,43.387,14.042,60.571a90.387,90.387,0,0,1-6.538,15.9c-3.885,7.893-7.24,14.71-5.765,23.718.916,5.6,3.923,8.27,7.4,11.364,3.36,2.986,7.168,6.371,10.45,13.2,5.648,11.755,4.767,22.926,4.058,31.9-1.24,15.723-6.168,25.247-10.127,32.9-4.129,7.982-7.391,14.287-5.455,24.1,2.548,12.925,12.111,21.447,21.359,29.689a89.3,89.3,0,0,0,34,18.9A.254.254,0,0,0,1845.811,451.958Z" transform="translate(-1755.449 -179.837)" fill="#fff" opacity="0.7" style="mix-blend-mode: soft-light;isolation: isolate"/>
            <path id="Path_19908" data-name="Path 19908" d="M1824.742,394.368a.25.25,0,0,0,.207-.108c14.967-21.764,20.083-39.833,21.739-51.16,1.8-12.292.021-19.54,0-19.611a.25.25,0,1,0-.485.123c.018.071,1.772,7.246-.018,19.45-1.653,11.267-6.75,29.246-21.651,50.914a.25.25,0,0,0,.206.392Z" transform="translate(-1775.772 -253.857)" fill="#fff" opacity="0.7" style="mix-blend-mode: soft-light;isolation: isolate"/>
            <path id="Path_19909" data-name="Path 19909" d="M1923.972,473.157a.25.25,0,0,0,.108-.476c-12.643-6.043-23.037-13.855-30.894-23.218a74.171,74.171,0,0,1-13.923-25.237,70.814,70.814,0,0,1-3.26-28.571.25.25,0,0,0-.5-.072,71.373,71.373,0,0,0,3.279,28.794,74.673,74.673,0,0,0,14.017,25.407c7.9,9.418,18.353,17.273,31.061,23.347A.252.252,0,0,0,1923.972,473.157Z" transform="translate(-1875.193 -293.674)" fill="#fff" opacity="0.7" style="mix-blend-mode: soft-light;isolation: isolate"/>
            <path id="Path_19910" data-name="Path 19910" d="M1778.825,625.545a.249.249,0,0,0,.125-.034c26.213-15.165,37.274-33.827,41.936-46.81,5.057-14.08,3.89-24.723,3.877-24.829a.254.254,0,0,0-.278-.22.251.251,0,0,0-.22.278c.012.1,1.165,10.652-3.861,24.628-4.638,12.9-15.638,31.438-41.706,46.52a.25.25,0,0,0,.126.467Z" transform="translate(-1732.62 -381.122)" fill="#fff" opacity="0.7" style="mix-blend-mode: soft-light;isolation: isolate"/>
            <path id="Path_19911" data-name="Path 19911" d="M1920.863,235.8a.251.251,0,0,0,.139-.459c-20.063-13.338-26.376-30.809-28.138-43.116a63.392,63.392,0,0,1,.993-23.778.25.25,0,1,0-.481-.137,63.917,63.917,0,0,0-1.01,23.966c1.774,12.415,8.134,30.037,28.359,43.483A.247.247,0,0,0,1920.863,235.8Z" transform="translate(-1879.475 -168.127)" fill="#fff" opacity="0.7" style="mix-blend-mode: soft-light;isolation: isolate"/>
          </g>
        </g>
      </g>
    </g>
    <g id="Group_1200" data-name="Group 1200" transform="translate(0 54.011)">
      <g id="Group_1199" data-name="Group 1199" transform="translate(0)">
        <g id="Group_1198" data-name="Group 1198">
          <path id="Path_19913" data-name="Path 19913" d="M1911.428,601.974c2.989.181,9.653-2.06,11.15-3.36,9.957-8.654,29.653-23.646,31.465-37.475.31-2.362-9.712-6.527-10.765-8.951-5.745-4.207-8-5.31-11.5-11.992-10.324-19.729,26.851-45.946-7.078-64.157-24.852-13.34-48.925-8.506-38.226-49s-7.53-121.513-56.347-101.18c-28.016,11.67-9.448,51.4-27.173,74.7-16.843,22.135-10.328,44.259,12.85,63.914s7.135,28.284-4.868,50.085c-14.417,26.188,27.592,39.358,47.505,43.784C1874.482,561.9,1912.91,581.794,1911.428,601.974Z" transform="translate(-1793.51 -322.636)" fill="#e02e7e"/>
          <g id="Group_1197" data-name="Group 1197" clip-path="url(#clip-path-2)">
            <g id="Group_1196" data-name="Group 1196" transform="translate(-4.901 -7.144)">
              <g id="Group_1195" data-name="Group 1195">
                <path id="Path_19914" data-name="Path 19914" d="M1928.642,572.165l.381-.51c-78.537-58.791-113.683-157.807-94.015-264.868l-.627-.115c-9.321,50.739-6.152,101.608,9.166,147.105C1859.651,501.609,1889.076,542.547,1928.642,572.165Z" transform="translate(-1779.531 -306.672)" fill="#fcfdfe"/>
                <path id="Path_19915" data-name="Path 19915" d="M1920.051,772.487c26.614-3.423,68.541,4.371,93.462,17.373l.295-.565c-25.019-13.053-67.114-20.876-93.838-17.439Z" transform="translate(-1904.96 -563.23)" fill="#fcfdfe"/>
                <path id="Path_19916" data-name="Path 19916" d="M1849.832,757.968l.508-.384c-8.812-11.654-11.394-27.316-7.673-46.55,2.728-14.1,8.718-29.762,17.8-46.544l-.56-.3c-9.117,16.838-15.129,32.559-17.869,46.726C1838.285,730.331,1840.906,746.163,1849.832,757.968Z" transform="translate(-1716.005 -504.192)" fill="#fcfdfe"/>
                <path id="Path_19917" data-name="Path 19917" d="M2085.36,573.3l.527-.358c-15.48-22.823-42.517-33.31-62.472-38.09l-.149.62C2043.112,540.227,2069.995,550.648,2085.36,573.3Z" transform="translate(-2023.266 -432.738)" fill="#fcfdfe"/>
                <path id="Path_19918" data-name="Path 19918" d="M1961.275,400.742l.633.074c3.619-30.856,26.264-54.322,39.439-65.564l-.414-.485C1987.686,346.07,1964.919,369.669,1961.275,400.742Z" transform="translate(-1910.984 -322.194)" fill="#fcfdfe"/>
              </g>
            </g>
          </g>
        </g>
      </g>
    </g>
    <g id="Group_1203" data-name="Group 1203" transform="translate(111.588 8.736)">
      <path id="Path_19920" data-name="Path 19920" d="M1448.671,233.123l-36.53,303.632a8,8,0,0,0,6.985,9.07l152.153,16.7c9.321.58,14.424-4.182,15-9.023l38.353-322.812c.572-4.814-4-9.174-13.362-9.174l-153.538,3.234A9.678,9.678,0,0,0,1448.671,233.123Z" transform="translate(-1405.03 -221.497)" fill="url(#linear-gradient-2)"/>
      <path id="Path_19921" data-name="Path 19921" d="M1462.624,232.571l-36.731,305.151a8.038,8.038,0,0,0,7.01,9.116l157.74,15.7a9.221,9.221,0,0,0,10.056-7.951l38.568-324.48a7.654,7.654,0,0,0-8.057-8.644l-159.488,2.691A9.723,9.723,0,0,0,1462.624,232.571Z" transform="translate(-1425.83 -221.467)" fill="url(#linear-gradient-3)"/>
      <path id="Path_19922" data-name="Path 19922" d="M1477.348,272.273,1443.3,555.208a7.5,7.5,0,0,0,6.564,8.5l148.349,14.421a8.6,8.6,0,0,0,9.349-7.422l35.642-299.744a7.17,7.17,0,0,0-7.48-8.1l-149.872,1.6A9.022,9.022,0,0,0,1477.348,272.273Z" transform="translate(-1437.562 -244.337)" fill="url(#linear-gradient-4)"/>
      <path id="Path_19923" data-name="Path 19923" d="M1622.969,242.126a2.524,2.524,0,0,0,2.606,2.9,3.477,3.477,0,0,0,3.316-2.984,2.524,2.524,0,0,0-2.611-2.9A3.479,3.479,0,0,0,1622.969,242.126Z" transform="translate(-1503.63 -231.232)" fill="url(#linear-gradient-5)"/>
      <g id="Group_1201" data-name="Group 1201" transform="translate(40.763)" style="mix-blend-mode: soft-light;isolation: isolate">
        <path id="Path_19924" data-name="Path 19924" d="M1450.5,439.327c30.37-56.15,75.739-72.958,89.4-130.827,7.384-31.281,2.353-61.221-6.12-86.075l56.666-.956a7.654,7.654,0,0,1,8.057,8.644l-38.568,324.48a9.221,9.221,0,0,1-10.056,7.951l-124-12.345C1424.963,499.885,1436.963,464.357,1450.5,439.327Z" transform="translate(-1425.83 -221.467)" fill="#fff"/>
      </g>
      <g id="Group_1202" data-name="Group 1202" transform="translate(59.307 36.841)">
        <ellipse id="Ellipse_29" data-name="Ellipse 29" cx="40.139" cy="46.264" rx="40.139" ry="46.264" transform="translate(70.775 119.462) rotate(-151.839)" fill="#fff" style="mix-blend-mode: soft-light;isolation: isolate"/>
        <ellipse id="Ellipse_30" data-name="Ellipse 30" cx="19.422" cy="22.386" rx="19.422" ry="22.386" transform="matrix(-0.882, -0.472, 0.472, -0.882, 63.78, 88.633)" fill="#fff"/>
      </g>
    </g>
    <g id="Group_1206" data-name="Group 1206" transform="translate(32.497 100.334)">
      <path id="Path_19925" data-name="Path 19925" d="M1755.845,985.893s12.712,5.777,12.919,6.7-8.174-.309-11.6-.176-6.237-.878-5.927-2.328,1.508-5.1,1.508-5.1Z" transform="translate(-1621.798 -734.899)" fill="url(#linear-gradient-6)"/>
      <path id="Path_19926" data-name="Path 19926" d="M1783.769,975.681,1783,981.4a4.485,4.485,0,0,1-3.364-.131l-.577-6.277Z" transform="translate(-1649.258 -729.376)" fill="url(#linear-gradient-7)"/>
      <path id="Path_19927" data-name="Path 19927" d="M1894.225,976.833l-1.479,2.374a2.831,2.831,0,0,0-.338,2.219c.517,1.974,1.55,5.821,2,6.824.614,1.366,8.84,2.178,8.84,2.178s.734-1.032-.975-2.279-2.806-1.443-3.409-3.283a48.18,48.18,0,0,1-1-7.044Z" transform="translate(-1819.579 -730.391)" fill="url(#linear-gradient-8)"/>
      <path id="Path_19928" data-name="Path 19928" d="M1905.714,962.512c-.54.431-3.182,8.45-3.182,8.45s-.855,1.094-2.48-.52-.735-.724-.735-.724l.3-7.888Z" transform="translate(-1824.914 -722.102)" fill="url(#linear-gradient-9)"/>
      <path id="Path_19929" data-name="Path 19929" d="M1792.646,709.763c.671,17.073.7,35.622-.284,55.437-1.106,22.314-3.329,42.938-6.13,61.634-1.041.033-2.135.039-3.278.007-.772-.021-1.52-.059-2.242-.109A141.924,141.924,0,0,1,1776,811.668a144.89,144.89,0,0,1-3.288-17.638c-2.448-19.338.421-21.024-1.566-35.355-1.76-12.693-4.262-13.188-7.2-31.208-3.187-19.553-.814-22.486.34-23.545C1769.2,699.411,1780.735,702.482,1792.646,709.763Z" transform="translate(-1651.141 -578.445)" fill="url(#linear-gradient-10)"/>
      <path id="Path_19930" data-name="Path 19930" d="M1769.042,703.925c4.684-4.3,15.4-1.7,26.713,4.869-13.018,14.064-14.436,23.187-12.876,29.107,1.764,6.69,7.126,8.617,7.106,15.934-.026,8.99-8.139,11.371-7.967,20.885.114,6.291,3.679,6.226,4.521,14,1,9.193-3.662,12.361-2.153,19.163.649,2.926,2.5,6.75,7.778,10.689-.381,2.793-.771,5.558-1.177,8.271-1.041.033-2.135.038-3.278.006-.772-.021-1.52-.059-2.243-.109a142.009,142.009,0,0,1-4.71-15.063,144.873,144.873,0,0,1-3.288-17.638c-2.448-19.337.42-21.024-1.566-35.355-1.76-12.693-4.262-13.188-7.2-31.208C1765.516,707.918,1767.888,704.984,1769.042,703.925Z" transform="translate(-1655.895 -578.449)" opacity="0.3" fill="url(#linear-gradient-11)" style="mix-blend-mode: multiply;isolation: isolate"/>
      <path id="Path_19931" data-name="Path 19931" d="M1843.4,707.246a383.359,383.359,0,0,0-52.555,112.487,6.847,6.847,0,0,1-3.752.581,6.982,6.982,0,0,1-4.251-2.3,110.437,110.437,0,0,1-.974-27.223,93.848,93.848,0,0,1,3.828-20.462c3.094-9.981,5.221-10.541,9.259-21.1,4.19-10.96,3.175-13.7,7.188-27.411a180.967,180.967,0,0,1,8.961-24.049Z" transform="translate(-1709.959 -576.215)" fill="url(#linear-gradient-10)"/>
      <path id="Path_19932" data-name="Path 19932" d="M1637.483,443.419s2.175-2.6,3.561-4.542,7.777-7.334,7.777-7.334.459.888-.921,2.263-4.274,3.72-3.643,4.752,2.45,1.97,1.081,3.864-3.648.53-4.861,2.047-2.458,3.172-2.458,3.172Z" transform="translate(-1451.026 -429.128)" fill="url(#linear-gradient-13)"/>
      <path id="Path_19933" data-name="Path 19933" d="M1723.588,451.97l4.354,5.462a81.255,81.255,0,0,1-15.007,31.875c-9.747,12.455-30.539,31.108-43.482,24.993-7.889-3.727-18.539-16.518-14.713-22.684,3.68-5.929,19.6-3.126,30.536-5.6C1695.995,483.6,1709.906,475.8,1723.588,451.97Z" transform="translate(-1537.437 -440.414)" fill="url(#linear-gradient-14)"/>
      <path id="Path_19934" data-name="Path 19934" d="M1849.952,557.769s-8.481,28.866-3.227,39.973,22.008-1.09,22.008-1.09Z" transform="translate(-1763.737 -498.866)" fill="url(#linear-gradient-15)"/>
      <path id="Path_19935" data-name="Path 19935" d="M1846.445,557.846s-8.481,28.866-3.227,39.973,22.008-1.091,22.008-1.091Z" transform="translate(-1758.661 -498.908)" opacity="0.3" fill="url(#linear-gradient-16)" style="mix-blend-mode: multiply;isolation: isolate"/>
      <path id="Path_19936" data-name="Path 19936" d="M1806.009,533.867c10.894-.2,19.284.158,23.923,5,4.9,5.114-.286,10.654.517,23.77,1.228,20.08,13.894,25.256,14.411,45.611a51.937,51.937,0,0,1-2.081,15.786,54.637,54.637,0,0,1-14.435,12.228c-9.984,5.78-15.675,4.61-29.91,8.174-23.284,5.83-25.508,13.329-36.943,11.157-11.557-2.2-21.521-12.178-20.175-17.512.806-3.194,5.462-2.183,10.953-6.962,7.076-6.159,4.532-12.241,9.955-18.907,7.79-9.575,18.216-3.39,24.858-11.692,6.718-8.4,4.494-25.28-.812-34.573-3.466-6.069-4.852-13.124-7.776-19.472a4.37,4.37,0,0,1-.366-2.456c.586-4.08,7.453-6.151,12.654-7.666A61.594,61.594,0,0,1,1806.009,533.867Z" transform="translate(-1693.421 -485.638)" fill="url(#linear-gradient-17)"/>
      <path id="Path_19937" data-name="Path 19937" d="M1821.767,532.554l-2.132-.707s-.625,2.894-7.535,3.107a10.316,10.316,0,0,1-6.261-2.284l-1.49,1.037a11.282,11.282,0,0,0,8.251,4.1A10.272,10.272,0,0,0,1821.767,532.554Z" transform="translate(-1698.574 -484.544)" fill="#e02e7e"/>
      <g id="Group_1204" data-name="Group 1204" transform="translate(0)">
        <path id="Path_19938" data-name="Path 19938" d="M1821.676,499.928a9.2,9.2,0,0,0-1.582-6.472c-1.633-2.451-2.024-2.771-2.732-3.156l-.979-.487s-.056-.017-.114-.031a10.77,10.77,0,0,0-3.051.091c-1.287.4-2.2,5.874-1.107,13.4q-.078.886-.156,1.772c-2.929-.405-3.777-.126-3.927.266-.326.85,1.715,5.814,4.5,6.791,3.5,1.225,8.373-1.97,8.666-3.126.118-.468.1-.066-2.285-1.445-.219-.692-.9-2.565-1.12-3.257C1818.3,503.946,1821.245,502.26,1821.676,499.928Z" transform="translate(-1700.232 -461.262)" fill="url(#linear-gradient-18)"/>
        <path id="Path_19939" data-name="Path 19939" d="M1816.3,506.508c-.646-.737-1.587.1-1.5,1.118a1.868,1.868,0,0,0,2.114,1.7C1817.854,509.038,1817.168,507.5,1816.3,506.508Z" transform="translate(-1698.848 -470.39)" fill="url(#linear-gradient-19)"/>
        <path id="Path_19940" data-name="Path 19940" d="M1828.835,428.871c14.211-8.04,37.709,2.982,48.348,16.536,4.943,6.3,6.564,12.38,13.891,15.2,5.57,2.147,15.283,2.919,22.014-1.7.848-.582,4.289-3.058,9.2-6,2.166-1.3,4.289-2.482,6.857-2.078.652.1,2.826.431,3.762,2.2a5.024,5.024,0,0,1-.338,4.653c-.457.747-.737.751-.872,1.293-.378,1.522,2.127,3.045,1.734,3.747-.28.5-1.629-.149-2.089.446-.5.652.843,1.786.912,3.855.98,1.238,1.1,3.572.476,6.443a26.635,26.635,0,0,1-3.978,9.667c-7.613,10.854-13.058,18.618-21.07,21.354-10.607,3.622-16.416-4.744-37.879-12.679-29.389-10.865-40.07-3.155-48.557-13.512C1810.653,465.379,1814.08,437.218,1828.835,428.871Z" transform="translate(-1815.09 -426.147)" fill="#26264f"/>
      </g>
      <g id="Group_1205" data-name="Group 1205" transform="translate(58.709 64.983)" opacity="0.3" style="mix-blend-mode: multiply;isolation: isolate">
        <path id="Path_19941" data-name="Path 19941" d="M1758.736,659.091c10.956-7.279,20.873,1.047,28.618-5.366,6.378-5.282,1.148-12.168,8.049-21.463,7.567-10.193,18.067-7.586,20.569-15.2,2.586-7.873-7.79-13.216-8.049-24.146-.132-5.579,2.372-12.844,12.378-21.558a50.052,50.052,0,0,0-.79,12.016c1.228,20.08,13.894,25.256,14.412,45.611a51.937,51.937,0,0,1-2.081,15.786A54.639,54.639,0,0,1,1817.407,657c-9.984,5.78-15.675,4.61-29.91,8.174-23.284,5.83-25.508,13.329-36.943,11.157a30.344,30.344,0,0,1-9.36-3.543,18.175,18.175,0,0,0,7.705-2.961C1753.9,666.359,1753.023,662.887,1758.736,659.091Z" transform="translate(-1741.194 -571.354)" fill="url(#linear-gradient-20)"/>
      </g>
    </g>
    <g id="Group_1225" data-name="Group 1225" transform="translate(245.7 138.058)">
      <g id="Group_1207" data-name="Group 1207" transform="translate(23.52 109.306)" opacity="0.9" style="mix-blend-mode: multiply;isolation: isolate">
        <path id="Path_19942" data-name="Path 19942" d="M1550.6,754.725l-.036,0,.005-.033.038,0A.319.319,0,0,0,1550.6,754.725Z" transform="translate(-1550.562 -754.689)" fill="#b5cee5"/>
      </g>
      <g id="Group_1208" data-name="Group 1208" transform="translate(21.192 110.638)" style="mix-blend-mode: multiply;isolation: isolate">
        <path id="Path_19943" data-name="Path 19943" d="M1555.8,757.7l-.035,0,0-.03.038,0C1555.806,757.679,1555.8,757.691,1555.8,757.7Z" transform="translate(-1555.766 -757.666)" fill="#74ecf3"/>
        <path id="Path_19944" data-name="Path 19944" d="M1555.766,757.7l.035,0c0-.009.005-.021.007-.03l-.038,0Z" transform="translate(-1555.766 -757.666)" fill="#a5c6e5" style="mix-blend-mode: multiply;isolation: isolate"/>
      </g>
      <g id="Group_1209" data-name="Group 1209" transform="translate(18.392 94.923)" opacity="0.9" style="mix-blend-mode: multiply;isolation: isolate">
        <path id="Path_19945" data-name="Path 19945" d="M1562.073,722.577l-.027,0,0-.024.029,0A.217.217,0,0,0,1562.073,722.577Z" transform="translate(-1562.046 -722.551)" fill="#b5cee5"/>
      </g>
      <g id="Group_1210" data-name="Group 1210" transform="translate(16.627 95.973)" style="mix-blend-mode: multiply;isolation: isolate">
        <path id="Path_19946" data-name="Path 19946" d="M1566.015,724.923l-.027,0,0-.023.029,0Z" transform="translate(-1565.988 -724.898)" fill="#74ecf3"/>
        <path id="Path_19947" data-name="Path 19947" d="M1565.988,724.921l.027,0,.005-.023-.029,0Z" transform="translate(-1565.988 -724.898)" fill="#a5c6e5" style="mix-blend-mode: multiply;isolation: isolate"/>
      </g>
      <g id="Group_1211" data-name="Group 1211" transform="translate(24.861 112.781)" opacity="0.9" style="mix-blend-mode: multiply;isolation: isolate">
        <path id="Path_19948" data-name="Path 19948" d="M1547.6,762.494l-.038,0,.005-.034.04,0A.282.282,0,0,0,1547.6,762.494Z" transform="translate(-1547.562 -762.456)" fill="#b5cee5"/>
      </g>
      <g id="Group_1212" data-name="Group 1212" transform="translate(22.424 114.162)" style="mix-blend-mode: multiply;isolation: isolate">
        <path id="Path_19949" data-name="Path 19949" d="M1553.045,765.576l-.037,0,0-.032.04,0C1553.051,765.554,1553.047,765.566,1553.045,765.576Z" transform="translate(-1553.008 -765.54)" fill="#74ecf3"/>
        <path id="Path_19950" data-name="Path 19950" d="M1553.008,765.572l.037,0c0-.01.006-.022.008-.032l-.04,0Z" transform="translate(-1553.008 -765.54)" fill="#a5c6e5" style="mix-blend-mode: multiply;isolation: isolate"/>
      </g>
      <path id="Path_19951" data-name="Path 19951" d="M1477.193,629.371c-.784,5.41-5.234,9.362-9.832,8.787l-57.573-7.211c-3.8-.476-6.282-4.818-5.558-9.651l10.49-69.959a36.887,36.887,0,0,1,6.861-15.369l13.106-15.736c3.189-3.829,9.158-7.189,13.291-7.443l37.961-2.333c4.683-.288,7.93,3.829,7.159,9.155Z" transform="translate(-1404.104 -510.441)" fill="#fff"/>
      <path id="Path_19952" data-name="Path 19952" d="M1477.193,629.371c-.784,5.41-5.234,9.362-9.832,8.787l-57.573-7.211c-3.8-.476-6.282-4.818-5.558-9.651l10.49-69.959a36.887,36.887,0,0,1,6.861-15.369l13.106-15.736c3.189-3.829,9.158-7.189,13.291-7.443l37.961-2.333c4.683-.288,7.93,3.829,7.159,9.155Z" transform="translate(-1404.104 -510.441)" fill="#d0e3ea"/>
      <path id="Path_19953" data-name="Path 19953" d="M1473.4,626.728c-.762,5.258-4.974,9.132-9.31,8.609l-54.576-6.57c-3.622-.436-5.975-4.659-5.268-9.387l10.243-68.434a36.7,36.7,0,0,1,6.593-15.035l12.527-15.373c3.045-3.737,8.727-7.008,12.648-7.247l35.9-2.19c4.412-.269,7.451,3.743,6.7,8.921Z" transform="translate(-1399.875 -510.799)" fill="#fff"/>
      <path id="Path_19954" data-name="Path 19954" d="M1445.044,688.386c-.487,3.26,1.218,6.152,3.809,6.429l45.388,4.844c3,.32,5.906-2.322,6.423-5.874l5.9-40.521c.514-3.53-1.563-6.487-4.591-6.57l-45.755-1.268c-2.612-.073-5.129,2.52-5.614,5.762Z" transform="translate(-1435.817 -585.016)" fill="#fbc900"/>
      <path id="Path_19955" data-name="Path 19955" d="M1445.044,688.386c-.487,3.26,1.218,6.152,3.809,6.429l45.388,4.844c3,.32,5.906-2.322,6.423-5.874l5.9-40.521c.514-3.53-1.563-6.487-4.591-6.57l-45.755-1.268c-2.612-.073-5.129,2.52-5.614,5.762Z" transform="translate(-1435.817 -585.016)" fill="#ffc55e" style="mix-blend-mode: multiply;isolation: isolate"/>
      <path id="Path_19956" data-name="Path 19956" d="M1444.926,686.236c-.459,3.083,1.164,5.811,3.627,6.062l42.967,4.384c2.832.289,5.565-2.209,6.052-5.552l5.552-38.147c.484-3.324-1.472-6.108-4.325-6.187l-43.292-1.2c-2.482-.069-4.872,2.384-5.33,5.451Z" transform="translate(-1432.325 -585.112)" fill="#fbc900"/>
      <g id="Group_1224" data-name="Group 1224" transform="translate(9.143 60.407)">
        <g id="Group_1223" data-name="Group 1223" clip-path="url(#clip-path-3)">
          <g id="Group_1222" data-name="Group 1222" transform="translate(-0.863 -0.575)">
            <g id="Group_1213" data-name="Group 1213" transform="translate(46.43 0.662)">
              <path id="Path_19957" data-name="Path 19957" d="M1449.434,668.636c4.139.249,8.132-3.585,8.854-8.548l1.818-12.488a.792.792,0,0,0-.694-.985,1.046,1.046,0,0,0-.972.937l-1.815,12.458c-.567,3.889-3.68,6.9-6.912,6.717-3.2-.183-5.328-3.443-4.768-7.265l1.886-12.878a.77.77,0,0,0-.664-.964,1.022,1.022,0,0,0-.938.92l-1.883,12.847C1442.634,664.241,1445.345,668.39,1449.434,668.636Z" transform="translate(-1443.232 -645.619)" fill="#f79200"/>
            </g>
            <g id="Group_1214" data-name="Group 1214" transform="translate(33.656 0.325)">
              <path id="Path_19958" data-name="Path 19958" d="M1480.571,667.434c3.98.24,7.824-3.456,8.525-8.238l1.131-7.721a.777.777,0,0,0-.664-.972,1.013,1.013,0,0,0-.938.915l-1.129,7.7c-.547,3.731-3.542,6.621-6.65,6.442-3.079-.177-5.114-3.371-4.562-7.12l1.862-12.631a.75.75,0,0,0-.636-.946,1,1,0,0,0-.906.9l-1.859,12.6C1474.043,663.131,1476.638,667.2,1480.571,667.434Z" transform="translate(-1474.631 -644.865)" fill="#f79200"/>
            </g>
            <g id="Group_1215" data-name="Group 1215" transform="translate(21.361)">
              <path id="Path_19959" data-name="Path 19959" d="M1509.031,666.278c3.831.231,7.543-3.4,8.235-8.089l1.116-7.573a.757.757,0,0,0-.635-.952.989.989,0,0,0-.906.9l-1.114,7.555c-.54,3.659-3.433,6.5-6.424,6.325-2.964-.17-4.911-3.3-4.366-6.98l1.837-12.394c.074-.5-.2-.917-.609-.928a.974.974,0,0,0-.876.886l-1.833,12.365C1502.762,662.063,1505.245,666.049,1509.031,666.278Z" transform="translate(-1503.339 -644.14)" fill="#f79200"/>
            </g>
            <g id="Group_1216" data-name="Group 1216" transform="translate(15.927 32.364)">
              <path id="Path_19960" data-name="Path 19960" d="M1527.443,737.556a.911.911,0,0,0,.9-.849l1.624-11.022c.706-4.787-1.866-8.919-5.69-9.21-3.78-.288-7.388,3.29-8.083,7.976l-1.517,10.228a.806.806,0,0,0,.6.991.89.89,0,0,0,.873-.835l1.519-10.251c.547-3.691,3.378-6.5,6.335-6.269,2.985.236,4.984,3.481,4.43,7.234l-1.621,11A.827.827,0,0,0,1527.443,737.556Z" transform="translate(-1514.668 -716.458)" fill="#f79200"/>
            </g>
            <g id="Group_1217" data-name="Group 1217" transform="translate(2.671 7.272)">
              <path id="Path_19961" data-name="Path 19961" d="M1540.823,679.9l8.037.562c3.724.26,7.348-3.324,8.041-7.99l.456-3.078c.692-4.662-1.817-8.57-5.552-8.715l-7.641-.295a.93.93,0,0,0-.836.857c-.073.488.182.9.572.913l7.639.316c2.93.121,4.893,3.193,4.35,6.847l-.456,3.07c-.543,3.658-3.383,6.474-6.306,6.278l-8.039-.539a.9.9,0,0,0-.833.838C1540.182,679.459,1540.436,679.877,1540.823,679.9Z" transform="translate(-1540.243 -660.388)" fill="#f79200"/>
            </g>
            <g id="Group_1218" data-name="Group 1218" transform="translate(0 25.127)">
              <path id="Path_19962" data-name="Path 19962" d="M1546.883,719.839l8.013.793c3.712.367,7.33-3.139,8.024-7.817l.458-3.086c.694-4.673-1.8-8.679-5.529-8.929l-7.619-.512a.9.9,0,0,0-.834.839c-.073.49.181.908.569.935l7.616.533c2.921.2,4.876,3.352,4.332,7.016l-.458,3.078c-.544,3.667-3.378,6.422-6.292,6.143l-8.016-.77a.871.871,0,0,0-.831.82A.77.77,0,0,0,1546.883,719.839Z" transform="translate(-1546.304 -700.286)" fill="#f79200"/>
            </g>
            <g id="Group_1219" data-name="Group 1219" transform="translate(28.77 33.315)">
              <path id="Path_19963" data-name="Path 19963" d="M1498.774,740.106a.932.932,0,0,0,.935-.864L1501.355,728c.715-4.881-1.973-9.1-5.947-9.4-3.927-.3-7.609,3-8.25,7.349l-1.028,6.968a.82.82,0,0,0,.627,1.006.918.918,0,0,0,.9-.854l1.029-6.985c.492-3.336,3.37-5.853,6.443-5.61,3.1.245,5.19,3.557,4.629,7.384l-1.643,11.212A.85.85,0,0,0,1498.774,740.106Z" transform="translate(-1486.117 -718.584)" fill="#f79200"/>
            </g>
            <g id="Group_1220" data-name="Group 1220" transform="translate(41.476 34.305)">
              <path id="Path_19964" data-name="Path 19964" d="M1469.611,742.76a.957.957,0,0,0,.969-.88l1.668-11.464c.724-4.979-2.086-9.286-6.218-9.6-4.083-.311-7.9,3.046-8.547,7.482l-1.041,7.1a.842.842,0,0,0,.656,1.027.941.941,0,0,0,.935-.87l1.043-7.122a6.525,6.525,0,0,1,6.674-5.711c3.225.255,5.409,3.638,4.841,7.54l-1.666,11.435A.874.874,0,0,0,1469.611,742.76Z" transform="translate(-1456.43 -720.797)" fill="#f79200"/>
            </g>
            <g id="Group_1221" data-name="Group 1221" transform="translate(23.617 25.378)">
              <path id="Path_19965" data-name="Path 19965" d="M1463.317,702.681l29.394,2.009a.991.991,0,0,0,.959-.9.822.822,0,0,0-.68-1.012l-29.4-1.926a.938.938,0,0,0-.883.866A.774.774,0,0,0,1463.317,702.681Z" transform="translate(-1462.692 -700.848)" fill="#f79200"/>
            </g>
          </g>
        </g>
      </g>
    </g>
  </g>
</svg>
